<svg width="512" height="512" viewBox="0 0 512 512" fill="none" xmlns="http://www.w3.org/2000/svg">
<circle cx="256" cy="256" r="251" fill="#1B2021" stroke="#937666" stroke-width="10"/>
<path fill-rule="evenodd" clip-rule="evenodd" d="M56.8143 282.701C47.37 262.257 56.2321 237.909 76.6084 228.319L187.15 176.295C207.526 166.705 231.701 175.504 241.145 195.948C250.589 216.392 241.727 240.74 221.351 250.329L110.809 302.354C90.4331 311.944 66.2587 303.145 56.8143 282.701Z" fill="#F4E87C"/>
<path fill-rule="evenodd" clip-rule="evenodd" d="M63.5044 237.876C79.4286 221.951 105.247 221.951 121.171 237.876L273.252 389.957C289.177 405.881 289.177 431.699 273.252 447.624C257.328 463.548 231.51 463.548 215.586 447.624L63.5044 295.542C47.5802 279.618 47.5802 253.8 63.5044 237.876Z" fill="#F4E87C"/>
<path fill-rule="evenodd" clip-rule="evenodd" d="M455.058 229.172C464.502 249.616 455.64 273.963 435.264 283.553L324.722 335.578C304.346 345.168 280.171 336.368 270.727 315.924C261.283 295.48 270.145 271.133 290.521 261.543L401.063 209.518C421.439 199.928 445.613 208.727 455.058 229.172Z" fill="#F4E87C"/>
<path fill-rule="evenodd" clip-rule="evenodd" d="M451.792 272.477C435.867 288.401 410.049 288.401 394.125 272.477L242.043 120.395C226.119 104.471 226.119 78.6526 242.043 62.7285C257.968 46.8043 283.786 46.8043 299.71 62.7285L451.792 214.81C467.716 230.734 467.716 256.552 451.792 272.477Z" fill="#F4E87C"/>
</svg>
